<?xml version="1.0" encoding="utf-8"?>
<!-- Generator: Adobe Illustrator 22.0.1, SVG Export Plug-In . SVG Version: 6.00 Build 0)  -->
<svg version="1.1" id="Layer_1" xmlns="http://www.w3.org/2000/svg" xmlns:xlink="http://www.w3.org/1999/xlink" x="0px" y="0px"
	 viewBox="0 0 12 12" style="enable-background:new 0 0 12 12;" xml:space="preserve">
<style type="text/css">
	.st0{fill:#297FC9;}
	.st1{fill:#3FA9F5;}
</style>
<g>
	<path class="st0" d="M6.8-6.4v-4.9h1.6l0.2-1.9H6.8v-1.2c0-0.6,0.2-0.9,0.9-0.9l1,0v-1.7c-0.2,0-0.8-0.1-1.5-0.1
		c-1.5,0-2.5,0.9-2.5,2.5v1.4H3.2v1.9h1.7v4.9H6.8z"/>
</g>
<g>
	<path class="st0" d="M-24.9-6.4h-4.9c-1.8,0-3.3,1.5-3.3,3.3v4.8c0,1.8,1.5,3.3,3.3,3.3h4.9c1.8,0,3.3-1.5,3.3-3.3v-4.8
		C-21.6-4.9-23.1-6.4-24.9-6.4L-24.9-6.4z M-22.7,1.8c0,1.2-1,2.2-2.2,2.2h-5C-31,4-32,3-32,1.8v-5c0-1.2,1-2.2,2.2-2.2h5
		c1.2,0,2.2,1,2.2,2.2V1.8z"/>
	<path class="st0" d="M-27.3-3.6c-1.6,0-3,1.3-3,3c0,1.6,1.3,3,3,3c1.6,0,3-1.3,3-3C-24.4-2.3-25.7-3.6-27.3-3.6L-27.3-3.6z
		 M-27.3,1.3c-1.1,0-1.9-0.9-1.9-1.9c0-1.1,0.9-1.9,1.9-1.9c1.1,0,1.9,0.9,1.9,1.9C-25.4,0.4-26.3,1.3-27.3,1.3L-27.3,1.3z"/>
	<path class="st0" d="M-24.3-4.4c-0.4,0-0.7,0.3-0.7,0.7c0,0.4,0.3,0.7,0.7,0.7c0.4,0,0.7-0.3,0.7-0.7C-23.6-4.1-23.9-4.4-24.3-4.4
		L-24.3-4.4z"/>
</g>
<g>
	<path class="st0" d="M-3.2,2.7C-3.6,2.9-4,3-4.5,3.1C-4,2.8-3.7,2.4-3.5,1.9c-0.4,0.2-0.9,0.4-1.4,0.5c-0.4-0.4-1-0.7-1.6-0.7
		c-1.2,0-2.2,1-2.2,2.2c0,0.2,0,0.3,0.1,0.5c-1.8-0.1-3.4-0.9-4.4-2.3c-0.2,0.3-0.3,0.7-0.3,1.1c0,0.7,0.4,1.4,1,1.8
		c-0.4,0-0.7-0.1-1-0.3v0c0,1,0.7,1.9,1.7,2.1c-0.2,0-0.4,0.1-0.6,0.1c-0.1,0-0.3,0-0.4,0c0.3,0.9,1.1,1.5,2,1.5
		c-0.7,0.6-1.7,0.9-2.7,0.9c-0.2,0-0.3,0-0.5,0c1,0.6,2.1,1,3.3,1c4,0,6.1-3.3,6.1-6.1c0-0.1,0-0.2,0-0.3C-3.9,3.6-3.5,3.2-3.2,2.7"
		/>
</g>
<path class="st0" d="M43.8,1.1H38c-1.7,0-3.1,1.4-3.1,3.1v3.7c0,1.7,1.4,3.1,3.1,3.1h5.7c1.7,0,3.1-1.4,3.1-3.1V4.2
	C46.9,2.5,45.5,1.1,43.8,1.1z M38,2.1h5.8c0.9,0,1.7,0.6,1.9,1.4l-4.3,2.1c-0.4,0.2-0.8,0.2-1.1,0l-4.3-2.1
	C36.3,2.7,37.1,2.1,38,2.1z M43.8,10H38c-1.1,0-2-0.9-2-2V4.7l4.4,2.1c0.4,0.2,0.8,0.2,1.1,0l4.4-2.1v3.2C45.9,9,45,10,43.8,10z"/>
<g>
	<g>
		<path class="st0" d="M32,11.6h-9.2c0-2.6,2.1-4.6,4.6-4.6C30,6.9,32,9,32,11.6z"/>
	</g>
	<circle class="st0" cx="27.4" cy="2.8" r="2.3"/>
</g>
<g>
	<g>
		<path class="st1" d="M0.6,3.1c0-0.1,0-0.2,0.1-0.3c0.2-0.2,0.4-0.2,0.6,0L6,7.5l4.7-4.7c0.2-0.2,0.4-0.2,0.6,0
			c0.2,0.2,0.2,0.4,0,0.6L6,8.7L0.7,3.4C0.6,3.3,0.6,3.2,0.6,3.1z"/>
	</g>
</g>
</svg>
