<?xml version="1.0" encoding="utf-8"?>
<!-- Generator: Adobe Illustrator 22.0.1, SVG Export Plug-In . SVG Version: 6.00 Build 0)  -->
<svg version="1.1" id="Layer_1" xmlns="http://www.w3.org/2000/svg" xmlns:xlink="http://www.w3.org/1999/xlink" x="0px" y="0px"
	 viewBox="0 0 12 12" style="enable-background:new 0 0 12 12;" xml:space="preserve">
<style type="text/css">
	.st0{fill:#297FC9;}
</style>
<g>
	<path class="st0" d="M6.8-6.4v-4.9h1.6l0.2-1.9H6.8v-1.2c0-0.6,0.2-0.9,0.9-0.9l1,0v-1.7c-0.2,0-0.8-0.1-1.5-0.1
		c-1.5,0-2.5,0.9-2.5,2.5v1.4H3.2v1.9h1.7v4.9H6.8z"/>
</g>
<g>
	<path class="st0" d="M8.4,0.3H3.6c-1.8,0-3.3,1.5-3.3,3.3v4.8c0,1.8,1.5,3.3,3.3,3.3h4.9c1.8,0,3.3-1.5,3.3-3.3V3.6
		C11.7,1.7,10.3,0.3,8.4,0.3L8.4,0.3z M10.7,8.5c0,1.2-1,2.2-2.2,2.2h-5c-1.2,0-2.2-1-2.2-2.2v-5c0-1.2,1-2.2,2.2-2.2h5
		c1.2,0,2.2,1,2.2,2.2V8.5z"/>
	<path class="st0" d="M6,3.1c-1.6,0-3,1.3-3,3c0,1.6,1.3,3,3,3c1.6,0,3-1.3,3-3C9,4.4,7.6,3.1,6,3.1L6,3.1z M6,8
		C4.9,8,4.1,7.1,4.1,6C4.1,5,4.9,4.1,6,4.1C7.1,4.1,7.9,5,7.9,6C7.9,7.1,7.1,8,6,8L6,8z"/>
	<path class="st0" d="M9.1,2.2c-0.4,0-0.7,0.3-0.7,0.7c0,0.4,0.3,0.7,0.7,0.7c0.4,0,0.7-0.3,0.7-0.7C9.8,2.6,9.5,2.2,9.1,2.2
		L9.1,2.2z"/>
</g>
<g>
	<path class="st0" d="M11.7,71.3c-0.4,0.2-0.8,0.3-1.2,0.3c0.4-0.3,0.8-0.7,0.9-1.2C11,70.7,10.5,70.9,10,71c-0.4-0.4-1-0.7-1.6-0.7
		c-1.2,0-2.2,1-2.2,2.2c0,0.2,0,0.3,0.1,0.5C4.6,72.9,3,72,1.9,70.7c-0.2,0.3-0.3,0.7-0.3,1.1c0,0.7,0.4,1.4,1,1.8
		c-0.4,0-0.7-0.1-1-0.3v0c0,1,0.7,1.9,1.7,2.1c-0.2,0-0.4,0.1-0.6,0.1c-0.1,0-0.3,0-0.4,0c0.3,0.9,1.1,1.5,2,1.5
		c-0.7,0.6-1.7,0.9-2.7,0.9c-0.2,0-0.3,0-0.5,0c1,0.6,2.1,1,3.3,1c4,0,6.1-3.3,6.1-6.1c0-0.1,0-0.2,0-0.3
		C11,72.1,11.4,71.8,11.7,71.3"/>
</g>
<g>
	<g>
		<path class="st0" d="M8.9-31.4H3.1c-1.7,0-3.1,1.4-3.1,3.1v3.7c0,1.7,1.4,3.1,3.1,3.1h5.7c1.7,0,3.1-1.4,3.1-3.1v-3.7
			C11.9-30,10.6-31.4,8.9-31.4L8.9-31.4z M11-24.5c0,1.1-0.9,2-2,2H3.1c-1.1,0-2-0.9-2-2v-3.8c0-1.1,0.9-2,2-2h5.8c1.1,0,2,0.9,2,2
			V-24.5z"/>
	</g>
	<path class="st0" d="M11.3-29.1v1.2l-4.7,2.3c-0.4,0.2-0.8,0.2-1.1,0l-4.7-2.3v-1.2l4.7,2.3c0.4,0.2,0.8,0.2,1.1,0L11.3-29.1z"/>
</g>
</svg>
