<?xml version="1.0" encoding="utf-8"?>
<!-- Generator: Adobe Illustrator 22.0.1, SVG Export Plug-In . SVG Version: 6.00 Build 0)  -->
<svg version="1.1" id="Layer_1" xmlns="http://www.w3.org/2000/svg" xmlns:xlink="http://www.w3.org/1999/xlink" x="0px" y="0px"
	 viewBox="0 0 12 12" style="enable-background:new 0 0 12 12;" xml:space="preserve">
<style type="text/css">
	.st0{fill:#297FC9;}
</style>
<g>
	<path class="st0" d="M6.8-6.4v-4.9h1.6l0.2-1.9H6.8v-1.2c0-0.6,0.2-0.9,0.9-0.9l1,0v-1.7c-0.2,0-0.8-0.1-1.5-0.1
		c-1.5,0-2.5,0.9-2.5,2.5v1.4H3.2v1.9h1.7v4.9H6.8z"/>
</g>
<g>
	<path class="st0" d="M-24.9-6.4h-4.9c-1.8,0-3.3,1.5-3.3,3.3v4.8c0,1.8,1.5,3.3,3.3,3.3h4.9c1.8,0,3.3-1.5,3.3-3.3v-4.8
		C-21.6-4.9-23.1-6.4-24.9-6.4L-24.9-6.4z M-22.7,1.8c0,1.2-1,2.2-2.2,2.2h-5C-31,4-32,3-32,1.8v-5c0-1.2,1-2.2,2.2-2.2h5
		c1.2,0,2.2,1,2.2,2.2V1.8z"/>
	<path class="st0" d="M-27.3-3.6c-1.6,0-3,1.3-3,3c0,1.6,1.3,3,3,3c1.6,0,3-1.3,3-3C-24.4-2.3-25.7-3.6-27.3-3.6L-27.3-3.6z
		 M-27.3,1.3c-1.1,0-1.9-0.9-1.9-1.9c0-1.1,0.9-1.9,1.9-1.9c1.1,0,1.9,0.9,1.9,1.9C-25.4,0.4-26.3,1.3-27.3,1.3L-27.3,1.3z"/>
	<path class="st0" d="M-24.3-4.4c-0.4,0-0.7,0.3-0.7,0.7c0,0.4,0.3,0.7,0.7,0.7c0.4,0,0.7-0.3,0.7-0.7C-23.6-4.1-23.9-4.4-24.3-4.4
		L-24.3-4.4z"/>
</g>
<g>
	<path class="st0" d="M11.5,2.7c-0.4,0.2-0.8,0.3-1.2,0.3c0.4-0.3,0.8-0.7,0.9-1.2c-0.4,0.2-0.9,0.4-1.4,0.5C9.5,2,8.9,1.7,8.3,1.7
		c-1.2,0-2.2,1-2.2,2.2c0,0.2,0,0.3,0.1,0.5C4.4,4.3,2.8,3.4,1.7,2.1C1.6,2.4,1.4,2.8,1.4,3.2c0,0.7,0.4,1.4,1,1.8
		c-0.4,0-0.7-0.1-1-0.3v0c0,1,0.7,1.9,1.7,2.1C3,6.9,2.8,6.9,2.6,6.9c-0.1,0-0.3,0-0.4,0c0.3,0.9,1.1,1.5,2,1.5
		C3.5,9,2.5,9.3,1.5,9.3c-0.2,0-0.3,0-0.5,0c1,0.6,2.1,1,3.3,1c4,0,6.1-3.3,6.1-6.1c0-0.1,0-0.2,0-0.3C10.9,3.6,11.2,3.2,11.5,2.7"
		/>
</g>
<g>
	<g>
		<path class="st0" d="M8.9-31.4H3.1c-1.7,0-3.1,1.4-3.1,3.1v3.7c0,1.7,1.4,3.1,3.1,3.1h5.7c1.7,0,3.1-1.4,3.1-3.1v-3.7
			C11.9-30,10.6-31.4,8.9-31.4L8.9-31.4z M11-24.5c0,1.1-0.9,2-2,2H3.1c-1.1,0-2-0.9-2-2v-3.8c0-1.1,0.9-2,2-2h5.8c1.1,0,2,0.9,2,2
			V-24.5z"/>
	</g>
	<path class="st0" d="M11.3-29.1v1.2l-4.7,2.3c-0.4,0.2-0.8,0.2-1.1,0l-4.7-2.3v-1.2l4.7,2.3c0.4,0.2,0.8,0.2,1.1,0L11.3-29.1z"/>
</g>
</svg>
